{
  "accessors": [
    {
      "bufferView": 2,
      "componentType": 5126,
      "count": 7830,
      "max": [
        9.242012023925781,
        2.762301445007324,
        3.56052303314209
      ],
      "min": [
        -9.313993453979492,
        -0.18304729461669922,
        -3.56052303314209
      ],
      "type": "VEC3"
    },
    {
      "bufferView": 2,
      "byteOffset": 93960,
      "componentType": 5126,
      "count": 7830,
      "max": [
        0.9999185800552368,
        1.0,
        1.0
      ],
      "min": [
        -0.9999185800552368,
        -0.9998396635055542,
        -0.9998288154602051
      ],
      "type": "VEC3"
    },
    {
      "bufferView": 1,
      "componentType": 5126,
      "count": 7830,
      "max": [
        0.8735923767089844,
        1.0
      ],
      "min": [
        0.125,
        0.0
      ],
      "type": "VEC2"
    },
    {
      "bufferView": 0,
      "componentType": 5125,
      "count": 29868,
      "type": "SCALAR"
    },
    {
      "bufferView": 2,
      "byteOffset": 187920,
      "componentType": 5126,
      "count": 6496,
      "max": [
        7.815042495727539,
        6.89572811126709,
        3.4436240196228027
      ],
      "min": [
        -7.841015815734863,
        1.1886531114578247,
        -3.4436240196228027
      ],
      "type": "VEC3"
    },
    {
      "bufferView": 2,
      "byteOffset": 265872,
      "componentType": 5126,
      "count": 6496,
      "max": [
        0.9996891021728516,
        0.999997615814209,
        1.0
      ],
      "min": [
        -0.9996830224990845,
        -0.9999998807907104,
        -1.0
      ],
      "type": "VEC3"
    },
    {
      "bufferView": 1,
      "byteOffset": 62640,
      "componentType": 5126,
      "count": 6496,
      "max": [
        1.0000001192092896,
        1.0000001192092896
      ],
      "min": [
        0.0,
        0.0
      ],
      "type": "VEC2"
    },
    {
      "bufferView": 0,
      "byteOffset": 119472,
      "componentType": 5125,
      "count": 34560,
      "type": "SCALAR"
    },
    {
      "bufferView": 2,
      "byteOffset": 343824,
      "componentType": 5126,
      "count": 1386,
      "max": [
        7.481031894683838,
        6.591733932495117,
        3.278900623321533
      ],
      "min": [
        -7.52272891998291,
        1.5257829427719116,
        -3.278900623321533
      ],
      "type": "VEC3"
    },
    {
      "bufferView": 2,
      "byteOffset": 360456,
      "componentType": 5126,
      "count": 1386,
      "max": [
        1.1355363312759437e-05,
        1.1307034583296627e-05,
        1.0
      ],
      "min": [
        -1.2799604519386776e-05,
        -8.188637366401963e-06,
        -1.0
      ],
      "type": "VEC3"
    },
    {
      "bufferView": 1,
      "byteOffset": 114608,
      "componentType": 5126,
      "count": 1386,
      "max": [
        0.0,
        0.0
      ],
      "min": [
        0.0,
        0.0
      ],
      "type": "VEC2"
    },
    {
      "bufferView": 0,
      "byteOffset": 257712,
      "componentType": 5125,
      "count": 2088,
      "type": "SCALAR"
    },
    {
      "bufferView": 2,
      "byteOffset": 377088,
      "componentType": 5126,
      "count": 2005,
      "max": [
        7.651675701141357,
        5.537500381469727,
        3.1048800945281982
      ],
      "min": [
        -7.69351863861084,
        1.3533685207366943,
        -3.1048800945281982
      ],
      "type": "VEC3"
    },
    {
      "bufferView": 2,
      "byteOffset": 401148,
      "componentType": 5126,
      "count": 2005,
      "max": [
        0.9999932050704956,
        0.9999996423721313,
        1.0
      ],
      "min": [
        -0.999990701675415,
        -0.9999996423721313,
        -1.0
      ],
      "type": "VEC3"
    },
    {
      "bufferView": 1,
      "byteOffset": 125696,
      "componentType": 5126,
      "count": 2005,
      "max": [
        0.0,
        0.0
      ],
      "min": [
        0.0,
        0.0
      ],
      "type": "VEC2"
    },
    {
      "bufferView": 0,
      "byteOffset": 266064,
      "componentType": 5125,
      "count": 9360,
      "type": "SCALAR"
    },
    {
      "bufferView": 2,
      "byteOffset": 425208,
      "componentType": 5126,
      "count": 3444,
      "max": [
        0.9926533699035645,
        0.9922885298728943,
        0.9891870021820068
      ],
      "min": [
        -0.9975839257240295,
        -0.9975886940956116,
        -0.9891870021820068
      ],
      "type": "VEC3"
    },
    {
      "bufferView": 2,
      "byteOffset": 466536,
      "componentType": 5126,
      "count": 3444,
      "max": [
        0.9999997615814209,
        0.9999997615814209,
        1.0
      ],
      "min": [
        -0.9999984502792358,
        -0.9999982118606567,
        -1.0
      ],
      "type": "VEC3"
    },
    {
      "bufferView": 1,
      "byteOffset": 141736,
      "componentType": 5126,
      "count": 3444,
      "max": [
        0.6250000596046448,
        0.7500001192092896
      ],
      "min": [
        0.1250000149011612,
        0.0
      ],
      "type": "VEC2"
    },
    {
      "bufferView": 0,
      "byteOffset": 303504,
      "componentType": 5125,
      "count": 11184,
      "type": "SCALAR"
    },
    {
      "bufferView": 2,
      "byteOffset": 507864,
      "componentType": 5126,
      "count": 600,
      "max": [
        1.0346729755401611,
        0.40395790338516235,
        3.018254518508911
      ],
      "min": [
        -1.411914348602295,
        -0.40395790338516235,
        -3.018254518508911
      ],
      "type": "VEC3"
    },
    {
      "bufferView": 2,
      "byteOffset": 515064,
      "componentType": 5126,
      "count": 600,
      "max": [
        1.0,
        1.0,
        1.0
      ],
      "min": [
        -1.0,
        -1.0,
        -1.0
      ],
      "type": "VEC3"
    },
    {
      "bufferView": 1,
      "byteOffset": 169288,
      "componentType": 5126,
      "count": 600,
      "max": [
        0.875,
        1.0
      ],
      "min": [
        0.125,
        0.0
      ],
      "type": "VEC2"
    },
    {
      "bufferView": 0,
      "byteOffset": 348240,
      "componentType": 5125,
      "count": 900,
      "type": "SCALAR"
    }
  ],
  "asset": {
    "extras": {
      "author": "PatelDev (https://sketchfab.com/PatelDev)",
      "license": "CC-BY-4.0 (http://creativecommons.org/licenses/by/4.0/)",
      "source": "https://sketchfab.com/3d-models/santa-sleigh-03298389717d428dae675d4f88aea17d",
      "title": "Santa Sleigh"
    },
    "generator": "Sketchfab-12.68.0",
    "version": "2.0"
  },
  "bufferViews": [
    {
      "buffer": 0,
      "byteLength": 351840,
      "name": "floatBufferViews",
      "target": 34963
    },
    {
      "buffer": 0,
      "byteLength": 174088,
      "byteOffset": 351840,
      "byteStride": 8,
      "name": "floatBufferViews",
      "target": 34962
    },
    {
      "buffer": 0,
      "byteLength": 522264,
      "byteOffset": 525928,
      "byteStride": 12,
      "name": "floatBufferViews",
      "target": 34962
    }
  ],
  "buffers": [
    {
      "byteLength": 1048192,
      "uri": "scene.bin"
    }
  ],
  "materials": [
    {
      "doubleSided": true,
      "name": "Material",
      "pbrMetallicRoughness": {
        "baseColorFactor": [
          0.8,
          0.229738,
          0.0,
          1.0
        ],
        "roughnessFactor": 0.4
      }
    },
    {
      "doubleSided": true,
      "name": "Material.003",
      "pbrMetallicRoughness": {
        "baseColorFactor": [
          0.8,
          0.00481721,
          0.000841795,
          1.0
        ],
        "roughnessFactor": 0.4
      }
    },
    {
      "doubleSided": true,
      "name": "Material.004",
      "pbrMetallicRoughness": {
        "baseColorFactor": [
          0.00154799,
          0.00154799,
          0.00154799,
          1.0
        ],
        "metallicFactor": 0.0,
        "roughnessFactor": 0.5
      }
    }
  ],
  "meshes": [
    {
      "name": "Object_0",
      "primitives": [
        {
          "attributes": {
            "NORMAL": 1,
            "POSITION": 0,
            "TEXCOORD_0": 2
          },
          "indices": 3,
          "material": 0,
          "mode": 4
        }
      ]
    },
    {
      "name": "Object_1",
      "primitives": [
        {
          "attributes": {
            "NORMAL": 5,
            "POSITION": 4,
            "TEXCOORD_0": 6
          },
          "indices": 7,
          "material": 0,
          "mode": 4
        }
      ]
    },
    {
      "name": "Object_2",
      "primitives": [
        {
          "attributes": {
            "NORMAL": 9,
            "POSITION": 8,
            "TEXCOORD_0": 10
          },
          "indices": 11,
          "material": 1,
          "mode": 4
        }
      ]
    },
    {
      "name": "Object_3",
      "primitives": [
        {
          "attributes": {
            "NORMAL": 13,
            "POSITION": 12,
            "TEXCOORD_0": 14
          },
          "indices": 15,
          "material": 1,
          "mode": 4
        }
      ]
    },
    {
      "name": "Object_4",
      "primitives": [
        {
          "attributes": {
            "NORMAL": 17,
            "POSITION": 16,
            "TEXCOORD_0": 18
          },
          "indices": 19,
          "material": 2,
          "mode": 4
        }
      ]
    },
    {
      "name": "Object_5",
      "primitives": [
        {
          "attributes": {
            "NORMAL": 21,
            "POSITION": 20,
            "TEXCOORD_0": 22
          },
          "indices": 23,
          "material": 2,
          "mode": 4
        }
      ]
    }
  ],
  "nodes": [
    {
      "children": [
        1
      ],
      "matrix": [
        1.0,
        0.0,
        0.0,
        0.0,
        0.0,
        2.220446049250313e-16,
        -1.0,
        0.0,
        0.0,
        1.0,
        2.220446049250313e-16,
        0.0,
        0.0,
        0.0,
        0.0,
        1.0
      ],
      "name": "Sketchfab_model"
    },
    {
      "children": [
        2
      ],
      "name": "root"
    },
    {
      "children": [
        3,
        5,
        8,
        10,
        12
      ],
      "matrix": [
        1.0,
        0.0,
        0.0,
        0.0,
        0.0,
        2.220446049250313e-16,
        1.0,
        0.0,
        0.0,
        -1.0,
        2.220446049250313e-16,
        0.0,
        0.0,
        0.0,
        0.0,
        1.0
      ],
      "name": "GLTF_SceneRootNode"
    },
    {
      "children": [
        4
      ],
      "matrix": [
        0.8169291019439697,
        0.0,
        0.0,
        0.0,
        0.0,
        1.0,
        0.0,
        0.0,
        0.0,
        0.0,
        1.0440967082977295,
        0.0,
        -0.3560657501220703,
        0.0,
        0.0,
        1.0
      ],
      "name": "Cube_0"
    },
    {
      "mesh": 0,
      "name": "Object_4"
    },
    {
      "children": [
        6,
        7
      ],
      "matrix": [
        0.8168724310262382,
        -0.013580381206358858,
        -0.0,
        0.0,
        0.016621788624377614,
        0.9998158869974819,
        0.0,
        0.0,
        0.0,
        -0.0,
        1.0440967082977295,
        0.0,
        -1.4888886213302612,
        -0.19804489612579346,
        0.0,
        1.0
      ],
      "name": "BezierCircle_3"
    },
    {
      "mesh": 1,
      "name": "Object_6"
    },
    {
      "mesh": 2,
      "name": "Object_7"
    },
    {
      "children": [
        9
      ],
      "matrix": [
        0.8168724310262382,
        -0.013580381206358858,
        -0.0,
        0.0,
        0.016621788624377614,
        0.9998158869974819,
        0.0,
        0.0,
        0.0,
        -0.0,
        1.0440967082977295,
        0.0,
        -1.4888886213302612,
        -0.19804489612579346,
        0.0,
        1.0
      ],
      "name": "BezierCircle.001_4"
    },
    {
      "mesh": 3,
      "name": "Object_9"
    },
    {
      "children": [
        11
      ],
      "matrix": [
        1.7547636032104492,
        0.0,
        0.0,
        0.0,
        0.0,
        2.1480000019073486,
        0.0,
        0.0,
        0.0,
        0.0,
        3.331533193588257,
        0.0,
        -5.364052772521973,
        4.062222003936768,
        0.0,
        1.0
      ],
      "name": "Cube.001_5"
    },
    {
      "mesh": 4,
      "name": "Object_11"
    },
    {
      "children": [
        13
      ],
      "matrix": [
        0.8169291019439697,
        0.0,
        0.0,
        0.0,
        0.0,
        1.0,
        0.0,
        0.0,
        0.0,
        0.0,
        1.0440967082977295,
        0.0,
        -4.5373382568359375,
        1.741190791130066,
        0.0,
        1.0
      ],
      "name": "Cube.002_6"
    },
    {
      "mesh": 5,
      "name": "Object_13"
    }
  ],
  "scene": 0,
  "scenes": [
    {
      "name": "Sketchfab_Scene",
      "nodes": [
        0
      ]
    }
  ]
}
