{
  "accessors": [
    {
      "bufferView": 2,
      "componentType": 5126,
      "count": 559,
      "max": [
        1.000000238418579,
        1.0,
        1.0000003576278687
      ],
      "min": [
        -0.9999998211860657,
        -1.0,
        -1.0
      ],
      "type": "VEC3"
    },
    {
      "bufferView": 2,
      "byteOffset": 6708,
      "componentType": 5126,
      "count": 559,
      "max": [
        1.0,
        1.0,
        1.0
      ],
      "min": [
        -1.0,
        -1.0,
        -1.0
      ],
      "type": "VEC3"
    },
    {
      "bufferView": 1,
      "componentType": 5126,
      "count": 559,
      "max": [
        1.000000238418579,
        1.0
      ],
      "min": [
        0.0,
        0.0
      ],
      "type": "VEC2"
    },
    {
      "bufferView": 0,
      "componentType": 5125,
      "count": 2880,
      "type": "SCALAR"
    },
    {
      "bufferView": 2,
      "byteOffset": 13416,
      "componentType": 5126,
      "count": 559,
      "max": [
        1.000000238418579,
        1.0,
        1.0000003576278687
      ],
      "min": [
        -0.9999998211860657,
        -1.0,
        -1.0
      ],
      "type": "VEC3"
    },
    {
      "bufferView": 2,
      "byteOffset": 20124,
      "componentType": 5126,
      "count": 559,
      "max": [
        1.0,
        1.0,
        1.0
      ],
      "min": [
        -1.0,
        -1.0,
        -1.0
      ],
      "type": "VEC3"
    },
    {
      "bufferView": 1,
      "byteOffset": 4472,
      "componentType": 5126,
      "count": 559,
      "max": [
        1.000000238418579,
        1.0
      ],
      "min": [
        0.0,
        0.0
      ],
      "type": "VEC2"
    },
    {
      "bufferView": 0,
      "byteOffset": 11520,
      "componentType": 5125,
      "count": 2880,
      "type": "SCALAR"
    },
    {
      "bufferView": 2,
      "byteOffset": 26832,
      "componentType": 5126,
      "count": 287,
      "max": [
        1.0000003576278687,
        1.0,
        1.0000004768371582
      ],
      "min": [
        -1.0000001192092896,
        -1.0,
        -1.0
      ],
      "type": "VEC3"
    },
    {
      "bufferView": 2,
      "byteOffset": 30276,
      "componentType": 5126,
      "count": 287,
      "max": [
        1.0,
        1.0,
        1.0
      ],
      "min": [
        -1.0,
        -1.0,
        -1.0
      ],
      "type": "VEC3"
    },
    {
      "bufferView": 1,
      "byteOffset": 8944,
      "componentType": 5126,
      "count": 287,
      "max": [
        1.000000238418579,
        1.0
      ],
      "min": [
        0.0,
        0.0
      ],
      "type": "VEC2"
    },
    {
      "bufferView": 0,
      "byteOffset": 23040,
      "componentType": 5125,
      "count": 1440,
      "type": "SCALAR"
    },
    {
      "bufferView": 2,
      "byteOffset": 33720,
      "componentType": 5126,
      "count": 574,
      "max": [
        0.11858002841472626,
        0.5752231478691101,
        0.9483438730239868
      ],
      "min": [
        -0.11857999861240387,
        -0.5752231478691101,
        0.792532205581665
      ],
      "type": "VEC3"
    },
    {
      "bufferView": 2,
      "byteOffset": 40608,
      "componentType": 5126,
      "count": 574,
      "max": [
        1.0,
        0.9956755042076111,
        0.997784435749054
      ],
      "min": [
        -1.0,
        -0.9956755042076111,
        -0.997784435749054
      ],
      "type": "VEC3"
    },
    {
      "bufferView": 1,
      "byteOffset": 11240,
      "componentType": 5126,
      "count": 574,
      "max": [
        1.000000238418579,
        1.0
      ],
      "min": [
        0.0,
        0.0
      ],
      "type": "VEC2"
    },
    {
      "bufferView": 0,
      "byteOffset": 28800,
      "componentType": 5125,
      "count": 2880,
      "type": "SCALAR"
    },
    {
      "bufferView": 2,
      "byteOffset": 47496,
      "componentType": 5126,
      "count": 574,
      "max": [
        0.22167402505874634,
        1.4697691202163696,
        0.5352580547332764
      ],
      "min": [
        -0.22167402505874634,
        1.2963930368423462,
        0.3618820309638977
      ],
      "type": "VEC3"
    },
    {
      "bufferView": 2,
      "byteOffset": 54384,
      "componentType": 5126,
      "count": 574,
      "max": [
        1.0,
        1.0,
        1.0
      ],
      "min": [
        -1.0,
        -1.0,
        -1.0
      ],
      "type": "VEC3"
    },
    {
      "bufferView": 1,
      "byteOffset": 15832,
      "componentType": 5126,
      "count": 574,
      "max": [
        1.000000238418579,
        1.0
      ],
      "min": [
        0.0,
        0.0
      ],
      "type": "VEC2"
    },
    {
      "bufferView": 0,
      "byteOffset": 40320,
      "componentType": 5125,
      "count": 2880,
      "type": "SCALAR"
    },
    {
      "bufferView": 2,
      "byteOffset": 61272,
      "componentType": 5126,
      "count": 11,
      "max": [
        0.9510565400123596,
        1.0,
        1.0
      ],
      "min": [
        -0.9510564804077148,
        -1.0,
        -1.0
      ],
      "type": "VEC3"
    },
    {
      "bufferView": 2,
      "byteOffset": 61404,
      "componentType": 5126,
      "count": 11,
      "max": [
        0.8506625294685364,
        1.0,
        0.8944333791732788
      ],
      "min": [
        -0.8506625294685364,
        0.4471982717514038,
        -0.8944333791732788
      ],
      "type": "VEC3"
    },
    {
      "bufferView": 1,
      "byteOffset": 20424,
      "componentType": 5126,
      "count": 11,
      "max": [
        0.9755282402038574,
        1.0
      ],
      "min": [
        0.024471759796142578,
        0.0
      ],
      "type": "VEC2"
    },
    {
      "bufferView": 0,
      "byteOffset": 51840,
      "componentType": 5125,
      "count": 30,
      "type": "SCALAR"
    },
    {
      "bufferView": 2,
      "byteOffset": 61536,
      "componentType": 5126,
      "count": 114,
      "max": [
        0.793016791343689,
        0.13765984773635864,
        0.2288583666086197
      ],
      "min": [
        -0.7928736805915833,
        -0.13290850818157196,
        -0.2523568868637085
      ],
      "type": "VEC3"
    },
    {
      "bufferView": 2,
      "byteOffset": 62904,
      "componentType": 5126,
      "count": 114,
      "max": [
        0.8480400443077087,
        0.999356746673584,
        0.9996682405471802
      ],
      "min": [
        -0.8478086590766907,
        -0.9968030452728271,
        -0.9996681213378906
      ],
      "type": "VEC3"
    },
    {
      "bufferView": 1,
      "byteOffset": 20512,
      "componentType": 5126,
      "count": 114,
      "max": [
        0.0,
        0.0
      ],
      "min": [
        0.0,
        0.0
      ],
      "type": "VEC2"
    },
    {
      "bufferView": 0,
      "byteOffset": 51960,
      "componentType": 5125,
      "count": 672,
      "type": "SCALAR"
    },
    {
      "bufferView": 2,
      "byteOffset": 64272,
      "componentType": 5126,
      "count": 105,
      "max": [
        1.0,
        1.854082703590393,
        1.0
      ],
      "min": [
        -1.0,
        0.5270114541053772,
        -2.7362329959869385
      ],
      "type": "VEC3"
    },
    {
      "bufferView": 2,
      "byteOffset": 65532,
      "componentType": 5126,
      "count": 105,
      "max": [
        0.9852769374847412,
        0.995371401309967,
        0.6750527024269104
      ],
      "min": [
        -0.9852769374847412,
        -0.9794787764549255,
        -0.944831132888794
      ],
      "type": "VEC3"
    },
    {
      "bufferView": 1,
      "byteOffset": 21424,
      "componentType": 5126,
      "count": 105,
      "max": [
        0.0,
        0.0
      ],
      "min": [
        0.0,
        0.0
      ],
      "type": "VEC2"
    },
    {
      "bufferView": 0,
      "byteOffset": 54648,
      "componentType": 5125,
      "count": 384,
      "type": "SCALAR"
    },
    {
      "bufferView": 2,
      "byteOffset": 66792,
      "componentType": 5126,
      "count": 511,
      "max": [
        1.149999976158142,
        0.8580083250999451,
        1.149999976158142
      ],
      "min": [
        -1.149999976158142,
        0.0,
        -2.931443691253662
      ],
      "type": "VEC3"
    },
    {
      "bufferView": 2,
      "byteOffset": 72924,
      "componentType": 5126,
      "count": 511,
      "max": [
        1.0,
        1.0,
        1.0
      ],
      "min": [
        -1.0,
        -1.0,
        -1.0
      ],
      "type": "VEC3"
    },
    {
      "bufferView": 1,
      "byteOffset": 22264,
      "componentType": 5126,
      "count": 511,
      "max": [
        1.000000238418579,
        1.0
      ],
      "min": [
        0.0,
        0.0
      ],
      "type": "VEC2"
    },
    {
      "bufferView": 0,
      "byteOffset": 56184,
      "componentType": 5125,
      "count": 2400,
      "type": "SCALAR"
    },
    {
      "bufferView": 2,
      "byteOffset": 79056,
      "componentType": 5126,
      "count": 96,
      "max": [
        1.0319510698318481,
        0.3207581639289856,
        1.0319510698318481
      ],
      "min": [
        -1.0319510698318481,
        0.0,
        -1.0319510698318481
      ],
      "type": "VEC3"
    },
    {
      "bufferView": 2,
      "byteOffset": 80208,
      "componentType": 5126,
      "count": 96,
      "max": [
        0.9781055450439453,
        0.9185925722122192,
        0.9781055450439453
      ],
      "min": [
        -0.9781055450439453,
        -0.9532161951065063,
        -0.9781055450439453
      ],
      "type": "VEC3"
    },
    {
      "bufferView": 1,
      "byteOffset": 26352,
      "componentType": 5126,
      "count": 96,
      "max": [
        0.0,
        0.0
      ],
      "min": [
        0.0,
        0.0
      ],
      "type": "VEC2"
    },
    {
      "bufferView": 0,
      "byteOffset": 65784,
      "componentType": 5125,
      "count": 288,
      "type": "SCALAR"
    },
    {
      "bufferView": 2,
      "byteOffset": 81360,
      "componentType": 5126,
      "count": 96,
      "max": [
        1.0319510698318481,
        0.3207581639289856,
        1.0319510698318481
      ],
      "min": [
        -1.0319510698318481,
        0.0,
        -1.0319510698318481
      ],
      "type": "VEC3"
    },
    {
      "bufferView": 2,
      "byteOffset": 82512,
      "componentType": 5126,
      "count": 96,
      "max": [
        0.9781055450439453,
        0.9185925722122192,
        0.9781055450439453
      ],
      "min": [
        -0.9781055450439453,
        -0.9532161951065063,
        -0.9781055450439453
      ],
      "type": "VEC3"
    },
    {
      "bufferView": 1,
      "byteOffset": 27120,
      "componentType": 5126,
      "count": 96,
      "max": [
        0.0,
        0.0
      ],
      "min": [
        0.0,
        0.0
      ],
      "type": "VEC2"
    },
    {
      "bufferView": 0,
      "byteOffset": 66936,
      "componentType": 5125,
      "count": 288,
      "type": "SCALAR"
    }
  ],
  "asset": {
    "extras": {
      "author": "PatelDev (https://sketchfab.com/PatelDev)",
      "license": "CC-BY-4.0 (http://creativecommons.org/licenses/by/4.0/)",
      "source": "https://sketchfab.com/3d-models/snowman-95b6485c508c4b068d683dda16a33252",
      "title": "Snowman"
    },
    "generator": "Sketchfab-12.68.0",
    "version": "2.0"
  },
  "bufferViews": [
    {
      "buffer": 0,
      "byteLength": 68088,
      "name": "floatBufferViews",
      "target": 34963
    },
    {
      "buffer": 0,
      "byteLength": 27888,
      "byteOffset": 68088,
      "byteStride": 8,
      "name": "floatBufferViews",
      "target": 34962
    },
    {
      "buffer": 0,
      "byteLength": 83664,
      "byteOffset": 95976,
      "byteStride": 12,
      "name": "floatBufferViews",
      "target": 34962
    }
  ],
  "buffers": [
    {
      "byteLength": 179640,
      "uri": "scene.bin"
    }
  ],
  "materials": [
    {
      "doubleSided": true,
      "name": "Material.004",
      "pbrMetallicRoughness": {
        "baseColorFactor": [
          0.8,
          0.8,
          0.8,
          1.0
        ],
        "metallicFactor": 0.0,
        "roughnessFactor": 0.31
      }
    },
    {
      "doubleSided": true,
      "name": "Material.003",
      "pbrMetallicRoughness": {
        "baseColorFactor": [
          0.00255418,
          0.00255418,
          0.00255418,
          1.0
        ],
        "metallicFactor": 0.0,
        "roughnessFactor": 0.5
      }
    },
    {
      "doubleSided": true,
      "name": "Material.006",
      "pbrMetallicRoughness": {
        "baseColorFactor": [
          0.8,
          0.0780642,
          0.00301371,
          1.0
        ],
        "metallicFactor": 0.0,
        "roughnessFactor": 0.5
      }
    },
    {
      "doubleSided": true,
      "name": "Material.001",
      "pbrMetallicRoughness": {
        "baseColorFactor": [
          0.457058,
          0.00131207,
          0.0,
          1.0
        ],
        "metallicFactor": 0.0,
        "roughnessFactor": 0.607
      }
    },
    {
      "doubleSided": true,
      "name": "Material.002",
      "pbrMetallicRoughness": {
        "baseColorFactor": [
          0.8,
          0.8,
          0.8,
          1.0
        ],
        "metallicFactor": 0.0
      }
    }
  ],
  "meshes": [
    {
      "name": "Object_0",
      "primitives": [
        {
          "attributes": {
            "NORMAL": 1,
            "POSITION": 0,
            "TEXCOORD_0": 2
          },
          "indices": 3,
          "material": 0,
          "mode": 4
        }
      ]
    },
    {
      "name": "Object_1",
      "primitives": [
        {
          "attributes": {
            "NORMAL": 5,
            "POSITION": 4,
            "TEXCOORD_0": 6
          },
          "indices": 7,
          "material": 0,
          "mode": 4
        }
      ]
    },
    {
      "name": "Object_2",
      "primitives": [
        {
          "attributes": {
            "NORMAL": 9,
            "POSITION": 8,
            "TEXCOORD_0": 10
          },
          "indices": 11,
          "material": 1,
          "mode": 4
        }
      ]
    },
    {
      "name": "Object_3",
      "primitives": [
        {
          "attributes": {
            "NORMAL": 13,
            "POSITION": 12,
            "TEXCOORD_0": 14
          },
          "indices": 15,
          "material": 1,
          "mode": 4
        }
      ]
    },
    {
      "name": "Object_4",
      "primitives": [
        {
          "attributes": {
            "NORMAL": 17,
            "POSITION": 16,
            "TEXCOORD_0": 18
          },
          "indices": 19,
          "material": 1,
          "mode": 4
        }
      ]
    },
    {
      "name": "Object_5",
      "primitives": [
        {
          "attributes": {
            "NORMAL": 21,
            "POSITION": 20,
            "TEXCOORD_0": 22
          },
          "indices": 23,
          "material": 2,
          "mode": 4
        }
      ]
    },
    {
      "name": "Object_6",
      "primitives": [
        {
          "attributes": {
            "NORMAL": 25,
            "POSITION": 24,
            "TEXCOORD_0": 26
          },
          "indices": 27,
          "material": 1,
          "mode": 4
        }
      ]
    },
    {
      "name": "Object_7",
      "primitives": [
        {
          "attributes": {
            "NORMAL": 29,
            "POSITION": 28,
            "TEXCOORD_0": 30
          },
          "indices": 31,
          "material": 3,
          "mode": 4
        }
      ]
    },
    {
      "name": "Object_8",
      "primitives": [
        {
          "attributes": {
            "NORMAL": 33,
            "POSITION": 32,
            "TEXCOORD_0": 34
          },
          "indices": 35,
          "material": 4,
          "mode": 4
        }
      ]
    },
    {
      "name": "Object_9",
      "primitives": [
        {
          "attributes": {
            "NORMAL": 37,
            "POSITION": 36,
            "TEXCOORD_0": 38
          },
          "indices": 39,
          "material": 4,
          "mode": 4
        }
      ]
    },
    {
      "name": "Object_10",
      "primitives": [
        {
          "attributes": {
            "NORMAL": 41,
            "POSITION": 40,
            "TEXCOORD_0": 42
          },
          "indices": 43,
          "material": 3,
          "mode": 4
        }
      ]
    }
  ],
  "nodes": [
    {
      "children": [
        1
      ],
      "matrix": [
        1.0,
        0.0,
        0.0,
        0.0,
        0.0,
        2.220446049250313e-16,
        -1.0,
        0.0,
        0.0,
        1.0,
        2.220446049250313e-16,
        0.0,
        0.0,
        0.0,
        0.0,
        1.0
      ],
      "name": "Sketchfab_model"
    },
    {
      "children": [
        2
      ],
      "name": "root"
    },
    {
      "children": [
        3,
        5,
        7,
        9,
        11,
        13,
        15,
        17,
        20
      ],
      "matrix": [
        1.0,
        0.0,
        0.0,
        0.0,
        0.0,
        2.220446049250313e-16,
        1.0,
        0.0,
        0.0,
        -1.0,
        2.220446049250313e-16,
        0.0,
        0.0,
        0.0,
        0.0,
        1.0
      ],
      "name": "GLTF_SceneRootNode"
    },
    {
      "children": [
        4
      ],
      "name": "Sphere_2"
    },
    {
      "mesh": 0,
      "name": "Object_4"
    },
    {
      "children": [
        6
      ],
      "matrix": [
        0.5056036114692688,
        0.0,
        0.0,
        0.0,
        0.0,
        0.5056036114692688,
        0.0,
        0.0,
        0.0,
        0.0,
        0.5056036114692688,
        0.0,
        0.0,
        1.3368070125579834,
        0.005953729152679443,
        1.0
      ],
      "name": "Sphere.001_3"
    },
    {
      "mesh": 1,
      "name": "Object_6"
    },
    {
      "children": [
        8
      ],
      "matrix": [
        0.11857998371124268,
        0.0,
        0.0,
        0.0,
        0.0,
        0.11857998371124268,
        0.0,
        0.0,
        0.0,
        0.0,
        0.0658118948340416,
        0.0,
        0.0,
        0.0,
        0.9879209995269775,
        1.0
      ],
      "name": "Sphere.002_4"
    },
    {
      "mesh": 2,
      "name": "Object_8"
    },
    {
      "children": [
        10
      ],
      "name": "Sphere.003_5"
    },
    {
      "mesh": 3,
      "name": "Object_10"
    },
    {
      "children": [
        12
      ],
      "matrix": [
        0.9776883721351624,
        0.0,
        0.0,
        0.0,
        0.0,
        0.9776883721351624,
        0.0,
        0.0,
        0.0,
        0.0,
        0.9776883721351624,
        0.0,
        0.0,
        0.020383477210998535,
        -0.014914274215698242,
        1.0
      ],
      "name": "Sphere.004_6"
    },
    {
      "mesh": 4,
      "name": "Object_12"
    },
    {
      "children": [
        14
      ],
      "matrix": [
        0.08278865367174149,
        0.0,
        0.0,
        0.0,
        0.0,
        0.0,
        0.23849855363368988,
        0.0,
        0.0,
        -0.08278865367174149,
        0.0,
        0.0,
        0.0,
        1.2300528287887573,
        0.6580911874771118,
        1.0
      ],
      "name": "Cone_7"
    },
    {
      "mesh": 5,
      "name": "Object_14"
    },
    {
      "children": [
        16
      ],
      "matrix": [
        0.22486832737922668,
        0.0,
        0.0,
        0.0,
        0.0,
        -0.1781608140338872,
        0.13720234072170764,
        0.0,
        0.0,
        -0.13720234072170764,
        -0.1781608140338872,
        0.0,
        -0.0002133420784957707,
        1.0903725624084473,
        0.41820985078811646,
        1.0
      ],
      "name": "Circle_8"
    },
    {
      "mesh": 6,
      "name": "Object_16"
    },
    {
      "children": [
        18,
        19
      ],
      "matrix": [
        0.3758400082588196,
        0.0,
        0.0,
        0.0,
        0.0,
        0.3758400082588196,
        0.0,
        0.0,
        0.0,
        0.0,
        0.3758400082588196,
        0.0,
        0.0,
        1.6390460729599,
        0.0,
        1.0
      ],
      "name": "Circle.001_9"
    },
    {
      "mesh": 7,
      "name": "Object_18"
    },
    {
      "mesh": 8,
      "name": "Object_19"
    },
    {
      "children": [
        21,
        22
      ],
      "matrix": [
        0.5709120035171509,
        0.0,
        0.0,
        0.0,
        0.0,
        0.5709120035171509,
        0.0,
        0.0,
        0.0,
        0.0,
        0.5709120035171509,
        0.0,
        0.0,
        0.8314290046691895,
        0.0,
        1.0
      ],
      "name": "Circle.002_10"
    },
    {
      "mesh": 9,
      "name": "Object_21"
    },
    {
      "mesh": 10,
      "name": "Object_22"
    }
  ],
  "scene": 0,
  "scenes": [
    {
      "name": "Sketchfab_Scene",
      "nodes": [
        0
      ]
    }
  ]
}
